<?xml version="1.0" standalone="no"?>
<!DOCTYPE svg PUBLIC "-//W3C//DTD SVG 20010904//EN" "http://www.w3.org/TR/2001/REC-SVG-20010904/DTD/svg10.dtd">
<!-- Created using Krita: https://krita.org -->
<svg xmlns="http://www.w3.org/2000/svg" 
    xmlns:xlink="http://www.w3.org/1999/xlink"
    xmlns:krita="http://krita.org/namespaces/svg/krita"
    xmlns:sodipodi="http://sodipodi.sourceforge.net/DTD/sodipodi-0.dtd"
    width="192pt"
    height="192pt"
    viewBox="0 0 192 192">
<defs/>
<path id="shape0" transform="matrix(8 0 0 8 16 10.34314576)" fill="#818cf8" fill-rule="evenodd" stroke-opacity="0" stroke="#000000" stroke-width="0" stroke-linecap="square" stroke-linejoin="bevel" d="M6.82929 18.7071C6.41746 19.8723 5.30622 20.7071 4 20.7071C2.34315 20.7071 1 19.364 1 17.7071C1 16.0503 2.34315 14.7071 4 14.7071C5.30622 14.7071 6.41746 15.5419 6.82929 16.7071L15.5 16.7071C16.8807 16.7071 18 15.5878 18 14.2071C18 12.8264 16.8807 11.7071 15.5 11.7071L4.5 11.7071C2.01472 11.7071 0 9.69239 0 7.20711C0 4.72183 2.01472 2.70711 4.5 2.70711L7.58579 2.70711L6.29289 1.41421L7.70711 0L11.4142 3.70711L7.70711 7.41421L6.29289 6L7.58579 4.70711L4.5 4.70711C3.11929 4.70711 2 5.82639 2 7.20711C2 8.58782 3.11929 9.70711 4.5 9.70711L15.5 9.70711C17.9853 9.70711 20 11.7218 20 14.2071C20 16.6924 17.9853 18.7071 15.5 18.7071ZM4 16.7071C3.44772 16.7071 3 17.1548 3 17.7071C3 18.2594 3.44772 18.7071 4 18.7071C4.55228 18.7071 5 18.2594 5 17.7071C5 17.1548 4.55228 16.7071 4 16.7071ZM16 0.707107C17.6569 0.707107 19 2.05025 19 3.70711C19 5.36396 17.6569 6.70711 16 6.70711C14.3431 6.70711 13 5.36396 13 3.70711C13 2.05025 14.3431 0.707107 16 0.707107ZM16 2.70711C15.4477 2.70711 15 3.15482 15 3.70711C15 4.25939 15.4477 4.70711 16 4.70711C16.5523 4.70711 17 4.25939 17 3.70711C17 3.15482 16.5523 2.70711 16 2.70711Z" sodipodi:nodetypes="cccccccccccccccccccccccccccccccccccccccc"/>
</svg>
